<svg version="1.1" viewBox="0.0 0.0 367.748031496063 366.0" fill="none" stroke="none" stroke-linecap="square" stroke-miterlimit="10" xmlns:xlink="http://www.w3.org/1999/xlink" xmlns="http://www.w3.org/2000/svg"><clipPath id="p.0"><path d="m0 0l367.74802 0l0 366.0l-367.74802 0l0 -366.0z" clip-rule="nonzero"/></clipPath><g clip-path="url(#p.0)"><path fill="#000000" fill-opacity="0.0" d="m0 0l367.74802 0l0 366.0l-367.74802 0z" fill-rule="evenodd"/><path fill="#0475ef" d="m8.540002 182.87622l0 0c0 -100.68961 80.173546 -182.31467 179.07262 -182.31467l0 0c47.49301 0 93.04085 19.208096 126.62346 53.398727c33.58264 34.190636 52.449158 80.56308 52.449158 128.91594l0 0c0 100.689606 -80.17355 182.31464 -179.07262 182.31464l0 0c-98.89908 0 -179.07262 -81.62503 -179.07262 -182.31464z" fill-rule="evenodd"/><path stroke="#0475ef" stroke-width="1.0" stroke-linejoin="round" stroke-linecap="butt" d="m8.540002 182.87622l0 0c0 -100.68961 80.173546 -182.31467 179.07262 -182.31467l0 0c47.49301 0 93.04085 19.208096 126.62346 53.398727c33.58264 34.190636 52.449158 80.56308 52.449158 128.91594l0 0c0 100.689606 -80.17355 182.31464 -179.07262 182.31464l0 0c-98.89908 0 -179.07262 -81.62503 -179.07262 -182.31464z" fill-rule="evenodd"/><path fill="#05c914" d="m182.43521 365.19086l0 0c-100.65103 0 -182.24481 -81.62503 -182.24481 -182.31464c0 -100.68961 81.59378 -182.31467 182.24481 -182.31467l0 0c-57.362885 43.038654 -91.122406 110.58357 -91.122406 182.31467c0 71.73108 33.75952 139.276 91.122406 182.31464z" fill-rule="evenodd"/><path stroke="#05c914" stroke-width="1.0" stroke-linejoin="round" stroke-linecap="butt" d="m182.43521 365.19086l0 0c-100.65103 0 -182.24481 -81.62503 -182.24481 -182.31464c0 -100.68961 81.59378 -182.31467 182.24481 -182.31467l0 0c-57.362885 43.038654 -91.122406 110.58357 -91.122406 182.31467c0 71.73108 33.75952 139.276 91.122406 182.31464z" fill-rule="evenodd"/><path fill="#000000" fill-opacity="0.0" d="m77.66025 116.12866l308.47498 -0.06577301l0 154.2637l-308.47498 0.0657959z" fill-rule="evenodd"/><path fill="#ffffff" d="m169.22295 149.80914q0 0.828125 -0.21875 1.2656708q-0.203125 0.43754578 -0.453125 1.5938416q-2.046875 0.7973175 -2.984375 0.79751587q-3.65625 7.7819824E-4 -3.65625 -3.6554718q0 -1.171875 0.421875 -1.6563416q0.421875 -0.48446655 0.90625 -1.6720734l2.953125 -0.18812561l2.59375 1.5775757q0.4375 1.4061584 0.4375 1.9374084zm5.078125 5.2489166q0 1.78125 -0.859375 1.2501831q-0.84375 -0.5310669 1.03125 0.14039612q-1.671875 1.6097412 -2.09375 1.7192078q-0.421875 0.093826294 -0.75 -0.10922241q-0.296875 0.48443604 -1.203125 -0.5153656q0.078125 -0.09376526 0.359375 0.3749237q0.28125 0.45306396 -1.515625 1.4221954q-1.09375 -1.4997711 -0.875 -1.8279419q0.21875 -0.34379578 -1.578125 0.4378357l0 -5.703125q1.796875 0.42149353 1.9375 -0.12541199q0.140625 -0.5469055 1.8125 -0.54725647q1.359375 -2.89917E-4 2.1875 0.749527q0.84375 0.74983215 1.546875 2.0153046l0 0.71875zm-11.078125 -9.63826q0 0.96875 -0.4375 1.7500916q-0.421875 0.78134155 -1.28125 1.6408997q-1.390625 0.34403992 -1.765625 0.3441162q-0.90625 1.9836426E-4 -1.53125 -0.2809143q-0.609375 -0.28112793 -2.140625 -0.89016724q0 -1.28125 -0.078125 -1.5312347q-0.078125 -0.26560974 -0.078125 -0.87498474q0 -1.46875 1.3125 -2.46904q1.3125 -1.0158997 2.421875 -1.0161285q1.140625 -2.4414062E-4 1.703125 0.4527588q0.578125 0.45300293 1.875 0.9839783l0 1.890625zm-6.609375 -0.8267212q-2.171875 1.7660828 -2.59375 2.0474243q-0.421875 0.26571655 -1.375 1.2034149l-4.109375 -0.686615l-1.0625 -4.359146q1.5 -1.2346954 2.28125 -1.6879883q0.78125 -0.45329285 1.9375 -0.453537q0.546875 -1.2207031E-4 1.734375 0.39024353q1.0 0.9997864 1.1875 1.5153809q0.203125 0.49995422 2.0 2.0308228zm-9.71875 1.3302002q0 0.671875 -0.5625 1.7969971q-1.125 0.7971039 -1.546875 0.96907043q-0.421875 0.17196655 -1.453125 0.29718018q-0.109375 -1.2499695 -0.140625 -0.48434448q-0.03125 0.75001526 -0.8125 0.7501831l-2.296875 4.8828125E-4q0.03125 -2.0000153 0.03125 -1.9687653q0 0.03125 -0.96875 -1.3747864q1.125 -1.8439941 1.953125 -2.734787q0.84375 -0.9064331 2.46875 -0.90678406q0.8125 -1.6784668E-4 1.640625 0.37464905q0.671875 0.6873627 1.171875 1.4060059q0.515625 0.7186432 0.515625 1.8748932zm22.921875 33.588852q0 1.6875 -0.890625 2.2345734q-0.875 0.5470581 -1.96875 1.641037q-1.671875 -0.6246338 -2.609375 -0.8744354q-0.9375 -0.26542664 -2.015625 -1.9683228l0 -1.28125q0 -0.71875 0.4375 -2.0313416l1.890625 -1.453537l2.3125 -0.35986328l2.140625 1.6089172q-0.765625 1.2032928 0.703125 0.7498474l0 1.734375zm-28.71875 -27.071991q-3.359375 1.3444672 -3.875 1.407074q-0.5 0.04698181 -1.984375 0.31292725q-1.21875 -0.7966156 -2.0 -1.4839478q-0.78125 -0.6873474 -0.78125 -2.0935974q0 -1.421875 0.890625 -2.297058q0.890625 -0.8908081 2.90625 -1.7975006l0.328125 2.531189q-0.375 -1.5936737 0.46875 -1.5938568q2.453125 -5.187988E-4 2.546875 1.468216q0.09375 1.4530945 0.09375 1.9374695q-0.609375 0.09388733 1.40625 1.6090851zm33.796875 35.367783q0 0.8125 -0.375 1.6407166q-0.34375 0.3438263 -0.609375 0.6563721q-0.265625 0.31256104 -1.171875 0.9377594q-0.5625 -0.23426819 -0.765625 -0.062347412q-0.1875 0.15629578 -0.5625 0.15637207q-0.78125 1.6784668E-4 -1.515625 -0.39030457q-0.109375 -0.046844482 -1.125 -0.46850586q-1.015625 -0.42166138 -0.640625 -1.6248627q-0.625 -0.43736267 -0.625 -1.0154877q0 -1.25 0.6875 -1.3751526q0.6875 -0.14076233 -0.09375 -1.3437347q1.765625 -0.7191162 2.0625 -0.75042725q0.3125 -0.046951294 1.421875 -0.7034302q1.65625 1.187149 2.484375 2.015091q0.828125 0.8123169 0.828125 2.327942zm-14.296875 -12.778198q0 0.5625 -0.09375 0.9062805q-0.078125 0.32814026 -0.078125 1.6562653q-1.359375 0.5627899 -1.9375 0.969162q-0.5625 0.39074707 -1.546875 0.39094543q-0.84375 1.8310547E-4 -1.421875 -0.28094482q-0.578125 -0.29675293 -2.875 -1.2337646l2.453125 -1.2505188q-1.203125 0.8908844 -1.515625 0.37532043q-0.296875 -0.51556396 -0.296875 -1.281189q0 -0.578125 0.109375 -0.96876526q0.125 -0.40628052 0.34375 -1.3750763q1.875 -1.3128967 3.28125 -1.3132019q1.078125 -2.2888184E-4 2.484375 0.9682312q-0.453125 0.76571655 0.3125 0.7186737q0.78125 -0.06266785 0.78125 1.7185822zm-9.125 -2.5136719q-0.375 2.0000763 -1.453125 3.4065552q-1.453125 0.5784302 -2.390625 0.57862854q-0.84375 1.8310547E-4 -2.625 -0.7025604q-0.859375 -1.5623169 -0.859375 -2.702942q0 -1.65625 1.171875 -3.0783691q0.75 -0.23454285 1.125 -0.35961914q0.390625 -0.1407013 0.9375 -0.14082336l0.953125 -1.9836426E-4q0.921875 0.59355164 1.40625 0.6871948q0.484375 0.09364319 1.734375 2.3121338zm-13.25 -13.965927q-0.390625 1.4063263 -0.390625 1.7657013q0 1.609375 -1.171875 2.4221344q-1.15625 0.81274414 -2.3125 0.8129883q-1.515625 3.2043457E-4 -2.59375 -1.0619507q-1.0625 -1.0778961 -1.0625 -2.593521q0 -1.921875 0.71875 -2.2501526q0.71875 -0.3282776 1.484375 -1.2503204q2.09375 0.2183075 2.78125 0.6244049q0.6875 0.39048767 2.546875 1.530716zm35.046875 38.805023q-0.1875 1.0156708 -0.296875 1.406311q-0.109375 0.39065552 -0.109375 2.3594055q-1.890625 3.9672852E-4 -2.234375 0.12547302q-0.328125 0.1250763 -1.078125 0.12522888q-0.734375 1.5258789E-4 -0.9375 -1.2810516q0.265625 0.21870422 -1.4375 1.9221802q-0.765625 -2.6404572 -2.265625 -3.5776367l2.5 -4.828659q1.296875 1.8434753 1.296875 0.78097534q0 1.375 -0.390625 0.7969513q-0.375 -0.59365845 1.03125 -2.0158386q1.515625 1.4371796 0.65625 2.6404877q-0.25 -1.4999542 1.328125 -1.5002899q0.921875 1.1248016 1.203125 1.5309906q0.28125 0.40620422 0.734375 1.5154724zm-31.203125 -28.321472q0 1.546875 -0.890625 2.3595734q-0.890625 0.8126831 -2.53125 1.422409q-2.078125 -0.7964325 -2.984375 -1.7024841q-0.65625 -1.3279877 -0.65625 -2.1717377q0 -0.84375 0.203125 -1.2656708q0.21875 -0.42192078 0.21875 -2.2187958q2.140625 -4.5776367E-4 2.34375 0.04637146q0.21875 0.031204224 0.21875 0.031204224q0.109375 -1.5258789E-5 0.359375 -0.031326294q0.25 -0.046920776 1.0625 -0.04710388q1.03125 0.6091614 1.109375 0.7028961q0.09375 0.09371948 1.546875 0.5152893l0 2.359375zm24.03125 35.104248q0 1.828125 -1.015625 2.609604q-1.0 0.7658386 -2.40625 1.2817535q-1.203125 -0.2341156 -1.5 -0.40592957q-0.296875 -0.17181396 -1.21875 -0.3278656q-0.640625 -1.0623627 -0.890625 -1.4060516q-0.234375 -0.35932922 -0.765625 -1.6560974q0.5 -1.2344818 0.703125 -1.5782623q0.21875 -0.34381104 0.625 -1.3282623q1.140625 -0.46899414 1.640625 -0.65660095q0.5 -0.18760681 1.25 -0.18777466q0.5625 -1.0681152E-4 1.828125 0.43711853q0.609375 0.7498627 1.171875 1.3122559q0.578125 0.5623627 0.578125 1.9061127zm-10.234375 2.377182q0 1.375 -1.015625 2.468979q-1.0 1.1095886 -2.484375 1.1098938q-0.703125 1.5258789E-4 -1.125 -0.14038086q-0.421875 -0.12490845 -1.765625 -0.12461853q-0.671875 -1.6248627 -0.84375 -2.202942q-0.171875 -0.5937195 -0.171875 -1.2812195l0 -1.828125q1.796875 -0.98475647 2.296875 -1.0629883q0.515625 -0.09385681 1.78125 -0.92225647l2.890625 2.2181396q0.4375 1.2967682 0.4375 1.7655182zm-9.359375 -1.8261261q-1.4375 3.8753052 -4.296875 3.8759155l-0.953125 2.1362305E-4q-1.390625 -0.9059601 -1.609375 -1.3746643q-0.203125 -0.48432922 -1.171875 -1.4528809q0.5 -1.5313568 0.5 -2.5938568q1.640625 -1.6409607 2.984375 -1.6412506q0.625 -1.373291E-4 1.0 0.09353638q0.390625 0.07803345 1.578125 0.07778931l1.96875 3.0151978zm-8.75 -2.2168884q-1.125 0.90649414 -1.859375 1.4378967q-0.71875 0.51579285 -1.890625 0.516037q-0.546875 1.2207031E-4 -0.734375 -0.4998474q-0.1875 -0.49995422 -0.859375 0.3283081q-1.890625 -1.655838 -1.71875 -2.0621338q0.1875 -0.40628052 -1.234375 -1.3122406q1.484375 -1.7659302 2.09375 -2.7191925q0.625 -0.9688873 2.546875 -0.96928406q1.0625 -2.2888184E-4 1.625 0.40589905q0.578125 0.39050293 1.6875 0.8433838q0.34375 1.5311737 0.34375 2.0936737q0 0.5625 0 1.9375zm90.51364 -56.566162q-1.375 1.3909149 -2.09375 2.2348175q-0.703125 0.8282776 -2.21875 0.828598q-0.84375 1.8310547E-4 -1.421875 -0.28094482q-0.578125 -0.29675293 -2.0625 -0.9058075q0 -1.375 -0.09375 -1.6718597q-0.078125 -0.29685974 -0.078125 -0.96873474q0 -2.4375 0.9375 -2.4220734q0.953125 -1.9836426E-4 1.21875 -1.1252594l3.15625 0.18682861q1.59375 1.624649 1.640625 2.124649q0.0625 0.48435974 1.015625 1.9997864zm-7.5 -1.1859131q0 1.09375 -0.65625 1.7501526q-0.234375 0.46879578 -0.96875 1.2814484q-0.734375 0.7970276 -2.125 0.79733276l-1.84375 3.9672852E-4q-0.546875 -1.0623932 -1.140625 -1.6560059q-0.578125 -0.5936279 -0.578125 -2.140503l0.84375 -1.8283081q1.0 -0.8283386 1.328125 -0.9377899q0.34375 -0.109451294 1.40625 -1.1565399q1.609375 1.015274 2.671875 1.6400452q1.0625 0.6247711 1.0625 2.249771zm-6.859375 0.51708984q0 1.53125 -0.796875 2.0782928q-0.78125 0.54704285 -1.796875 1.3441467q-1.0625 -0.18728638 -1.359375 -0.18721008q-0.296875 6.1035156E-5 -1.84375 3.8146973E-4q-0.65625 -1.3436127 -0.96875 -1.7185364q-0.296875 -0.37493896 -0.296875 -1.968689q0.359375 -0.8907013 1.078125 -2.047104q0.734375 -1.1564026 2.40625 -1.1567688q0.9375 -1.9836426E-4 1.5 0.34342957q0.578125 0.34362793 3.65625 1.5929718q-3.09375 0.9537811 -3.28125 0.8913269q1.234375 -0.7971344 1.46875 -0.31280518q0.234375 0.46868896 0.234375 1.140564zm-7.25 -0.6390686q-0.25 1.3437958 -0.359375 1.5782013q-0.09375 0.21876526 -0.09375 1.2343903q-2.1875 1.4067078 -3.84375 1.407074q-0.765625 -0.3123474 -1.21875 -0.5153656q-0.4375 -0.20303345 -1.828125 -1.0152435l0 -1.796875q0 -1.296875 1.203125 -3.1721344l3.421875 -1.2350922q0.890625 1.5154266 1.3125 1.7965851q0.4375 0.28115845 1.40625 1.7184601zm-8.34375 -0.27947998q-0.1875 1.5000458 -0.46875 2.1094818q-0.265625 0.5937958 -0.90625 1.8751831q-1.703125 0.4222412 -2.25 0.42236328q-0.9375 1.9836426E-4 -2.34375 -0.84324646q-1.40625 -0.8590851 -1.40625 -2.390335q0 -0.6875 0.09375 -1.0312653q0.109375 -0.35940552 -0.21875 -2.5468292q2.25 -4.7302246E-4 2.671875 -0.15681458q0.421875 -0.17196655 1.203125 -0.1721344q1.75 -3.8146973E-4 2.28125 0.7338867q0.546875 0.7186279 1.34375 1.9997101zm-7.390625 -0.123428345q-0.796875 1.6408081 -0.796875 3.093933q-1.546875 0.64094543 -2.34375 0.9536133q-0.796875 0.31266785 -1.484375 0.31282043q-1.65625 3.5095215E-4 -2.453125 -1.2182312q-0.78125 -1.2342072 -0.78125 -2.3435822q0 -1.4375 1.0 -2.4220886q1.0 -0.9845886 2.40625 -0.98487854q0.625 -1.373291E-4 1.921875 0.405838q0.203125 0.5468292 0.625 0.6248627q0.421875 0.07803345 1.90625 1.577713zm28.828125 30.493866q0 0.453125 -0.359375 1.5469513q-1.34375 1.6721497 -2.03125 1.7504272q-0.6875 0.07827759 -2.46875 0.37553406q-1.671875 -1.405899 -1.671875 -1.749649q0 -0.359375 -0.796875 -0.99983215q0.359375 -1.6563263 0.609375 -2.109497q0.25 -0.45318604 0.84375 -1.8908081l1.625 -3.5095215E-4q0 1.125 0.140625 0.40621948q0.15625 -0.7344055 1.046875 -0.7346039l1.703125 -3.5095215E-4q0.53125 1.2967529 0.9375 1.8279266q0.421875 0.51553345 0.421875 1.5780334zm-29.953125 -23.446747q0 0.921875 -0.09375 1.3906403q-0.078125 0.46878052 -0.078125 3.3281555q-2.3125 -1.2182617 -2.5625 -0.89009094q0 -0.96875 -0.359375 0.7657013q-3.0 -1.3274841 -4.765625 -4.3271027q1.703125 -1.3909912 2.0625 -1.6723175q0.359375 -0.2969513 1.296875 -1.4065247q1.953125 0.21833801 2.90625 0.7024994q0.953125 0.48417664 1.59375 2.1090393zm22.59375 23.604568q0 1.203125 -0.53125 1.8751068q-0.515625 0.6719818 -2.28125 2.4536133q-0.34375 -2.5780487 -0.34375 -0.9999237q0 -1.0 0.015625 -0.45314026q0.03125 0.53125 -0.515625 0.5313721q-1.40625 2.89917E-4 -2.375 -1.2651215q-0.953125 -1.2654266 -0.953125 -2.3904266q0 -1.875 1.359375 -2.547165q1.375 -0.6877899 2.46875 -0.6880188q1.484375 -3.2043457E-4 2.3125 1.2651215q0.84375 1.2498322 0.84375 2.2185822zm-21.859375 -15.682846q-0.640625 0.9376373 -0.84375 1.3751831q-0.203125 0.42192078 -1.109375 1.2658539q-0.875 0.1564331 -1.296875 0.26589966q-0.421875 0.10946655 -1.0625 0.10960388q-1.203125 2.593994E-4 -2.4375 -0.9526062q-0.3125 -0.6405487 -0.640625 -1.1561127q-0.328125 -0.5155487 -0.328125 -1.4530487q0 -0.46875 0.40625 -1.6719666q0.90625 -0.87519836 1.265625 -1.0158997q0.359375 -0.1563263 1.140625 -1.1564941q2.0 0.577713 2.40625 0.82762146q0.421875 0.24990845 1.65625 0.87464905q0.203125 1.1093292 0.84375 2.687317zm14.375 14.887558q-0.59375 1.8282471 -1.265625 3.1565247q-0.65625 1.3126373 -3.265625 1.3131866q-0.578125 -0.39050293 -0.609375 -0.49986267q-0.015625 -0.125 -0.84375 0.062683105q-1.46875 -1.7028198 -1.46875 -3.2340698q0 -0.609375 0.15625 -1.0000305q0.15625 -0.39065552 0.484375 -1.0938568q0.96875 -0.59394836 1.25 -0.8752594q0.296875 -0.29693604 2.71875 -0.73495483q0.90625 0.92167664 1.328125 1.2497101q0.421875 0.31240845 1.515625 1.6559296zm-14.4375 -6.3094177q0 0.671875 -0.359375 1.1563263q-0.34375 0.4844513 -0.625 0.7345123l-0.90625 0.9220581l-1.859375 3.9672852E-4q0 -1.1875 -0.265625 0.76568604q-1.6875 -1.3121338 -1.71875 -1.3277588q-0.015625 -0.015625 -1.953125 -0.530838l1.296875 -2.1721497l-1.125 -0.59350586q1.078125 -1.6096039 1.921875 -2.312912q0.859375 -0.7189331 2.1875 -0.719223q1.515625 -3.2043457E-4 2.0625 0.96832275q1.046875 0.21852112 1.1875 1.0309906q0.15625 0.8124695 0.15625 2.0780945zm6.734375 7.6235657q-1.328125 1.6096497 -2.15625 2.2973328q-0.8125 0.68766785 -2.140625 0.68795776q-0.4375 9.1552734E-5 -0.796875 -0.07795715q-0.34375 -0.078048706 -1.40625 -0.40594482q-0.5 -0.9842682 -0.765625 -1.4685974q-0.265625 -0.48431396 -0.265625 -1.374939l0 -0.84375l1.4375 -2.8909302q2.21875 -4.7302246E-4 2.828125 0.31188965q0.609375 0.29675293 1.984375 0.640213q0.640625 1.5779877 0.625 1.8123627q-0.015625 0.234375 0.65625 1.3123627zm-6.40625 -1.467392q-1.046875 2.203354 -1.65625 3.281601q-0.609375 1.0782623 -2.84375 1.0787354l-2.640625 5.645752E-4q0.828125 -1.7970581 0.078125 -1.6250153q-0.75 0.15640259 -0.75 -1.7810974q0 -1.03125 0.34375 -1.562561q0.359375 -0.5469513 0.921875 -1.9220734l1.71875 -3.6621094E-4q0 0.328125 0.140625 0.12496948q0.140625 -0.20315552 0.53125 -0.20324707l1.1875 -2.4414062E-4l2.96875 2.6087341zm-0.75 6.218918q0 2.109375 -0.171875 2.6719055q-0.171875 0.5469208 -0.171875 2.0781708q-1.546875 0.64094543 -2.140625 0.8754425q-0.578125 0.21888733 -1.34375 0.21903992l-2.125 4.5776367E-4q-0.546875 -1.5936279 -0.796875 -2.0779572q-0.234375 -0.48432922 -0.484375 -1.8748932q0.390625 -0.71884155 0.453125 -0.8594818q0.078125 -0.14064026 1.234375 0.4528656q-1.34375 0.031539917 -1.34375 -2.28096q2.140625 -0.21920776 3.515625 -0.7194977q1.234375 0.4997406 1.609375 0.74964905q0.375 0.2499237 1.765625 0.7652588zm0.4375 9.296783q-0.296875 1.875061 -0.84375 1.7501678q-0.546875 -0.12487793 0.90625 1.7029419q-1.9375 0.359787 -2.078125 0.4535675q-0.140625 0.09378052 -1.171875 0.60961914q-1.046875 -0.23414612 -1.296875 -0.28097534q-0.234375 -0.062438965 -1.65625 -0.062149048q-0.5625 -1.3748779 -0.921875 -1.9060516q-0.359375 -0.5311737 -0.359375 -1.4999237l0 -0.828125q0.953125 -2.6720734 3.328125 -2.672577q0.625 -1.373291E-4 1.0 0.09353638q0.390625 0.07803345 1.765625 0.07774353q0.640625 1.4061127 0.734375 1.6248474q0.109375 0.21871948 0.59375 0.9373779zm-0.015625 7.4375q-0.375 2.0625763 -1.5625 3.2503357q-1.34375 0.50027466 -2.1875 0.50045776q-1.640625 3.5095215E-4 -2.40625 -0.9994812q-0.765625 -1.0154572 -1.1875 -2.6872559q0.84375 -1.7032928 3.34375 -4.203827q0.75 1.8123322 1.203125 1.3122406q0.453125 -0.50009155 2.0 1.0308228q-0.046875 0.57814026 0.109375 0.6562195q0.15625 0.07809448 0.6875 1.1404877zm-0.609375 7.046997q-0.203125 3.5156708 -3.0625 5.781906q-0.734375 -1.2654724 -1.84375 -0.18710327l-2.21875 -2.780777l0 -1.140625q0 -0.421875 0.03125 -0.625q0.046875 -0.21876526 0.046875 -1.0468903q1.296875 -1.2971497 1.796875 -1.4222565q0.5 -0.12510681 1.5 -1.1565704q2.828125 1.4837646 2.609375 1.9838104q-0.203125 0.48442078 1.140625 0.59350586zm74.82176 -60.609695q0 2.4375 -0.3125 2.953186q-0.3125 0.5157013 -0.765625 2.2970428l-3.28125 7.019043E-4q-0.671875 -0.43736267 -1.640625 -0.62464905q-0.96875 -0.20292664 -0.96875 -2.4373016q0 -0.578125 0.078125 -0.87501526q0.078125 -0.29689026 0.078125 -0.85939026q1.359375 -2.015915 3.25 -2.0163116q0.546875 -1.2207031E-4 2.296875 0.43699646q0.5 1.0936584 0.125 1.2656097q-0.375 0.1563263 1.140625 -0.14086914zm4.828125 9.748962q-0.5625 1.0782471 -1.125 1.4064941q-0.546875 0.31262207 -0.453125 1.2032166l-1.46875 0.59407043q-1.53125 3.2043457E-4 -2.203125 -0.39015198q-0.65625 -0.39048767 -2.28125 -1.5620117q0.421875 -1.8907166 0.828125 -3.375183q0.40625 -1.4844666 2.703125 -1.4849548q1.296875 -2.746582E-4 2.421875 0.6088562q1.140625 0.60913086 1.578125 2.9996643zm4.171875 10.874115l-2.125 2.4848328q-1.265625 0.4221344 -1.734375 0.4222412q-0.8125 1.6784668E-4 -1.328125 -0.23408508q-0.515625 -0.23426819 -1.75 -0.6715088q-0.328125 -1.1092987 -0.453125 -1.4842834q-0.125 -0.37496948 -0.125 -1.0155945q0 -0.375 0.390625 -1.5625763q1.671875 -1.6722412 4.53125 -1.6728516q1.390625 1.4215851 2.59375 3.7338257zm-13.0625 -9.544083q0 1.546875 -1.1875 2.4846191q-1.171875 0.9221344 -2.46875 0.92240906q-0.78125 1.6784668E-4 -0.6875 -1.5467377q0.453125 1.3592834 0.28125 1.406189q-0.171875 0.046920776 -2.3593597 1.0317535q-0.4375 -2.7655334 -0.578125 -3.390503q-0.140625 -0.6249695 -0.140625 -1.3280945q0 -1.4375 0.5625 -1.8438568q0.578125 -0.40638733 1.28125 -1.3127747q1.3593597 -2.89917E-4 1.8593597 0.04647827q0.515625 0.03112793 2.140625 0.030792236q0.5 1.3280182 0.890625 1.8591766q0.40625 0.5155487 0.40625 1.6405487zm16.671875 18.35582q0 0.671875 -0.125 1.0156403q-0.125 0.32815552 -0.125 1.8437805q-1.546875 0.2815857 -1.96875 0.54730225q-0.40625 0.2500763 -1.359375 0.25028992q-0.984375 1.9836426E-4 -1.484375 -0.34344482q-0.5 -0.3436432 -2.0 -0.62457275q0 -2.234375 0.703125 -2.1563873q0.71875 0.062332153 -0.53125 0.06260681q0.921875 -1.9836426E-4 0.4375 0.062408447q-0.46875 0.06259155 -1.0 -1.1247864q1.234375 -1.4533844 2.03125 -2.1879425q0.8125 -0.75016785 2.1875 -0.75045776q1.4375 -3.0517578E-4 2.328125 1.0776215q0.90625 1.0779419 0.90625 2.327942zm2.625 9.48381q0 2.578125 -1.21875 2.8127594q-1.21875 0.2346344 -2.890625 1.1568604q-1.109375 -1.0466309 -1.5625 -1.2809143q-0.453125 -0.23426819 -1.109375 -1.3435059q-0.171875 -0.7499695 -0.234375 -1.1405792q-0.0625 -0.39060974 -0.796875 -2.1717072q2.078125 -1.0316925 2.828125 -1.3130951q0.75 -0.29704285 1.75 -0.29725647q1.875 -3.9672852E-4 2.546875 1.171341q0.6875 1.1560974 0.6875 2.4060974zm3.640625 6.405472q0 1.3125 -0.59375 3.140747q-1.28125 0.53152466 -1.875 0.703537q-0.578125 0.17199707 -1.28125 0.17214966q-3.234375 6.866455E-4 -3.234375 -3.2336884q0 -0.453125 0.15625 -0.6406555q0.171875 -0.20317078 -0.0625 -0.859375l2.09375 -2.5160675q1.328125 0.53097534 1.609375 0.5309143q0.296875 -6.1035156E-5 1.421875 0.20281982q1.234375 1.2497406 1.765625 2.4996185zm-26.96875 -24.572372q-1.6093597 1.6097107 -2.5468597 2.2505493q-0.9375 0.62519836 -2.234375 0.625473q-1.171875 2.4414062E-4 -2.453125 -1.2963562q-0.53125 -1.2498932 -0.53125 -2.2811432q0 -0.546875 0.203125 -0.7812805q0.21875 -0.23442078 -0.03125 -1.328125q1.1875 -0.6096344 1.65625 -0.95347595q0.484375 -0.3438568 1.484375 -0.34407043q1.09375 -2.2888184E-4 0.9375 1.2185516q0.296875 -0.96881104 0.53125 -0.7813568q0.234375 0.18743896 1.53125 -0.015960693q0.640625 1.9217377 0.65625 2.1561127q0.03125 0.234375 0.79685974 1.5310822zm15.03125 19.85617q0 1.78125 -1.890625 3.0941467q-0.859375 0.093933105 -2.453125 0.82865906l-3.5 -2.4211273q1.328125 -1.0940399 0.96875 -1.2189636q-0.359375 -0.1405487 -0.359375 -1.1874237q0.796875 -1.3751678 1.3125 -1.8908997q0.515625 -0.5313721 1.0 -0.6408386q0.484375 -0.10948181 0.59375 0.20298767q0.109375 0.29685974 0.578125 -1.0782471l3.421875 1.7805328l0 1.515625q-1.0625 2.1362305E-4 -0.375 0.031326294q0.703125 0.031097412 0.703125 0.9842224zm14.640625 13.824997q-0.625 2.3126373 -1.546875 3.0940857q-0.90625 0.78144836 -3.234375 1.4069366q-1.078125 -1.0778961 -1.515625 -1.4059296q-0.421875 -0.32803345 -1.40625 -1.5934448q0.28125 -1.234436 0.328125 -1.4219513q0.0625 -0.203125 0.0625 -1.625q1.3125 -0.06278992 1.265625 -0.35964966q-0.03125 -0.3125 1.296875 -1.3127747q1.28125 0.42160034 1.84375 0.5152283q0.578125 0.09362793 2.3125 0.9682617q-1.0 1.3283386 -0.203125 0.7187958l0.796875 1.0154419zm2.859375 9.24939q-0.59375 1.1563873 -1.0625 1.5471039q-0.453125 0.4063568 -1.46875 1.0940704q-1.234375 -0.3122406 -1.71875 -0.3121338q-0.484375 1.0681152E-4 -2.234375 -0.32765198q-0.34375 -1.5467987 -0.5 -2.0467682q-0.140625 -0.5155945 -0.140625 -1.2030945q0 -1.53125 1.25 -2.2502594q1.25 -0.73464966 2.234375 -0.7348633q1.0 -2.1362305E-4 2.796875 0.6400299q0.578125 1.4061279 0.625 1.9842377q0.0625 0.5625 0.21875 1.6093292zm-24.859375 -24.33844q0 1.296875 -0.046875 1.640625q-0.03125 0.32814026 -0.03125 1.6718903l-1.4375 0.8440552q-1.40625 0.5159302 -3.5625 0.51638794q-1.734375 -1.7340088 -1.734375 -2.4840088q0 -0.75 -0.296875 -2.359314q2.109375 -2.1410675 3.96875 -2.1414642l1.6875 -3.6621094E-4q0.671875 1.3279877 0.765625 1.5310822q0.109375 0.20310974 0.6875 0.7811127zm-12.249985 -7.4817657q-1.640625 0.96910095 -2.3125 1.4067383q-0.65625 0.42201233 -2.21875 0.42234802q-1.203125 -0.7497406 -2.0 -1.3901978q-0.796875 -0.64045715 -0.796875 -1.9685822l-0.53125 -1.5780029q2.5625 -1.6099243 3.15625 -1.6100464q0.59375 -1.373291E-4 1.984375 -0.14105225l1.046875 0.5466461q1.140625 1.1403809 1.140625 1.9216309q0 0.765625 0.53125 2.3905182zm5.2656097 9.139496l-1.9374847 2.453537q-1.0625 0.5627289 -1.84375 0.5628967q-0.59375 1.2207031E-4 -1.0 -0.10916138q-0.390625 -0.12490845 -1.5 -0.39030457q-0.625 -1.2342377 -0.25 -1.499939q0.375 -0.28134155 -1.375 -0.062210083q0.609375 -2.7032623 1.140625 -3.2971191q0.53125 -0.5938721 2.046875 -1.9066925q1.125 0.45289612 1.453125 0.45281982q0.328125 -7.6293945E-5 1.890625 0.29647827q0.62498474 1.5936127 0.65623474 1.9842224q0.046875 0.375 0.71875 1.5154724zm-8.95311 -1.5449677q-0.9375 1.4689636 -1.5625 2.3909607q-0.609375 0.9063873 -2.234375 0.9067383q-1.21875 2.593994E-4 -2.4375 -0.9682312q-1.21875 -0.9841156 -1.21875 -2.4372406q0 -1.0625 0.828125 -2.312683q0.84375 -1.2658081 2.40625 -1.2661438q0.90625 -1.8310547E-4 1.265625 0.2184906q0.375 0.21865845 1.046875 0.32789612q1.1875 1.1872559 1.234375 1.6403656q0.046875 0.45310974 0.671875 1.4998474zm-4.03125 6.2977448q0 3.515625 -1.203125 4.3283844q-1.203125 0.81274414 -3.078125 1.2975311q-1.015625 -0.8591614 -2.78125 -1.4212952q0.125 -1.3125153 -0.03125 -1.4999847q-0.140625 -0.20309448 -0.140625 -0.9062195q0 -1.046875 0.5625 -1.7657471q0.578125 -0.7188721 1.453125 -1.5471802q2.203125 -4.7302246E-4 4.109375 0.67099q0.546875 1.0936432 0.625 1.3436279q0.09375 0.24996948 -1.3125 1.1721497l1.796875 -1.6722565zm-3.546875 10.422623q0 1.296875 -1.0625 2.281479q-1.046875 0.9689789 -2.265625 0.9692383q-1.109375 2.2888184E-4 -1.703125 -0.6246338q-0.390625 -0.1561737 -1.140625 -0.87475586q-0.734375 -0.7342224 -0.734375 -1.9060974l0 -1.34375q0.953125 -0.95332336 1.296875 -0.64089966q0.34375 0.2967987 -0.234375 -1.3437042l2.265625 -4.8828125E-4q0.75 -1.5258789E-4 1.28125 0.20285034q0.53125 0.18739319 1.5625 0.71842957q0.734375 1.7810822 0.734375 2.5623322zm-2.46875 6.609909q0 0.515625 -0.375 1.7500763q-1.125 1.0627441 -1.53125 0.3753357q-0.390625 -0.6874237 0.984375 1.1091614l-2.734375 5.79834E-4q-1.28125 2.746582E-4 -2.421875 -0.8744812q-1.140625 -0.87475586 -1.140625 -2.4372559q0 -1.84375 2.640625 -4.0786896q1.046875 0.7341461 1.03125 1.0778961q-0.015625 0.32814026 -0.015625 -0.40623474q0 1.171875 -0.09375 0.54689026q-0.078125 -0.64060974 0.59375 -0.6407471q1.0625 -2.2888184E-4 1.53125 0.3902893q0.484375 0.39053345 1.453125 1.0621948q0 1.15625 0.03125 1.453125q0.046875 0.29685974 0.046875 0.67185974zm93.17241 -56.301117q0 0.828125 -0.21875 1.2656708q-0.203125 0.43754578 -0.453125 1.5938416q-2.046875 0.7973175 -2.984375 0.79751587q-3.65625 7.7819824E-4 -3.65625 -3.6554718q0 -1.171875 0.421875 -1.6563416q0.421875 -0.48446655 0.90625 -1.6720581l2.953125 -0.18814087l2.59375 1.5775757q0.4375 1.4061584 0.4375 1.9374084zm5.0781555 5.2489166q0 1.78125 -0.859375 1.2501831q-0.84375 -0.5310669 1.03125 0.14041138q-1.671875 1.609726 -2.09375 1.7191925q-0.421875 0.09384155 -0.75 -0.10922241q-0.29690552 0.48443604 -1.2031555 -0.5153656q0.078125 -0.09376526 0.359375 0.3749237q0.28125 0.45306396 -1.515625 1.4221954q-1.09375 -1.4997559 -0.875 -1.8279419q0.21875 -0.34379578 -1.578125 0.43785095l0 -5.703125q1.796875 0.42147827 1.9375 -0.12542725q0.140625 -0.5469055 1.8125 -0.54725647q1.3594055 -2.89917E-4 2.1875305 0.74954224q0.84375 0.7498169 1.546875 2.0152893l0 0.71875zm-11.0781555 -9.63826q0 0.96875 -0.4375 1.7500916q-0.421875 0.78134155 -1.28125 1.6408997q-1.390625 0.34403992 -1.765625 0.3441162q-0.90625 1.9836426E-4 -1.53125 -0.2809143q-0.609375 -0.28112793 -2.140625 -0.89016724q0 -1.28125 -0.078125 -1.5312347q-0.078125 -0.26560974 -0.078125 -0.87498474q0 -1.46875 1.3125 -2.4690247q1.3125 -1.0159149 2.421875 -1.0161438q1.140625 -2.4414062E-4 1.703125 0.4527588q0.578125 0.45300293 1.875 0.9839783l0 1.890625zm-6.609375 -0.8267212q-2.171875 1.7660828 -2.59375 2.0474243q-0.421875 0.26571655 -1.375 1.2034302l-4.109375 -0.68663025l-1.0625 -4.359146q1.5 -1.2346954 2.28125 -1.6879883q0.78125 -0.45329285 1.9375 -0.453537q0.546875 -1.2207031E-4 1.734375 0.3902588q1.0 0.9997864 1.1875 1.5153656q0.203125 0.49995422 2.0 2.0308228zm-9.71875 1.3302002q0 0.671875 -0.5625 1.7969971q-1.125 0.7971039 -1.546875 0.96907043q-0.421875 0.17196655 -1.453125 0.29719543q-0.109375 -1.2499847 -0.140625 -0.48434448q-0.03125 0.75 -0.8125 0.75016785l-2.296875 4.8828125E-4q0.03125 -2.0 0.03125 -1.96875q0 0.03125 -0.96875 -1.3748016q1.125 -1.8439941 1.953125 -2.734787q0.84375 -0.9064331 2.46875 -0.90678406q0.8125 -1.6784668E-4 1.640625 0.37464905q0.671875 0.6873627 1.171875 1.4060059q0.515625 0.7186432 0.515625 1.8748932zm22.921875 33.588867q0 1.6875 -0.890625 2.234558q-0.875 0.5470581 -1.96875 1.6410522q-1.671875 -0.62464905 -2.609375 -0.8744507q-0.9375 -0.26542664 -2.015625 -1.9683228l0 -1.28125q0 -0.71875 0.4375 -2.0313416l1.890625 -1.4535217l2.3125 -0.35987854l2.140625 1.6089172q-0.765625 1.2032928 0.703125 0.7498627l0 1.734375zm-28.71875 -27.072006q-3.359375 1.3444672 -3.875 1.407074q-0.5 0.04698181 -1.984375 0.31292725q-1.21875 -0.7966156 -2.0 -1.4839478q-0.78125 -0.68733215 -0.78125 -2.0935822q0 -1.421875 0.890625 -2.2970734q0.890625 -0.8908081 2.90625 -1.7974854l0.328125 2.5311737q-0.375 -1.5936737 0.46875 -1.5938568q2.453125 -5.187988E-4 2.546875 1.468216q0.09375 1.4531097 0.09375 1.9374847q-0.609375 0.09387207 1.40625 1.6090698zm33.796906 35.367798q0 0.8125 -0.375 1.6407013q-0.34375 0.3438263 -0.609375 0.6563721q-0.265625 0.31256104 -1.171875 0.9377594q-0.5625 -0.23425293 -0.765625 -0.062332153q-0.1875 0.15628052 -0.5625305 0.15635681q-0.78125 1.6784668E-4 -1.515625 -0.3902893q-0.109375 -0.04685974 -1.125 -0.46852112q-1.015625 -0.42166138 -0.640625 -1.6248627q-0.625 -0.43736267 -0.625 -1.0154877q0 -1.25 0.6875 -1.3751526q0.6875 -0.14076233 -0.09375 -1.3437195q1.765625 -0.71913147 2.0625 -0.7504425q0.3125 -0.046951294 1.4219055 -0.7034302q1.65625 1.187149 2.484375 2.015091q0.828125 0.81233215 0.828125 2.3279572zm-14.2969055 -12.7782135q0 0.5625 -0.09375 0.9062805q-0.078125 0.32814026 -0.078125 1.6562653q-1.359375 0.5627899 -1.9375 0.969162q-0.5625 0.39074707 -1.546875 0.3909607q-0.84375 1.6784668E-4 -1.421875 -0.28096008q-0.578125 -0.29675293 -2.875 -1.2337494l2.453125 -1.250534q-1.203125 0.8908844 -1.515625 0.37532043q-0.296875 -0.5155487 -0.296875 -1.2811737q0 -0.578125 0.109375 -0.9687805q0.125 -0.40628052 0.34375 -1.3750763q1.875 -1.3128967 3.28125 -1.3132019q1.078125 -2.2888184E-4 2.484375 0.9682312q-0.453125 0.76571655 0.3125 0.7186737q0.78125 -0.06266785 0.78125 1.7185822zm-9.125 -2.5136719q-0.375 2.0000763 -1.453125 3.4065552q-1.453125 0.57844543 -2.390625 0.5786438q-0.84375 1.6784668E-4 -2.625 -0.7025757q-0.859375 -1.5623169 -0.859375 -2.702942q0 -1.65625 1.171875 -3.0783691q0.75 -0.23454285 1.125 -0.35961914q0.390625 -0.1407013 0.9375 -0.14082336l0.953125 -1.9836426E-4q0.921875 0.59355164 1.40625 0.6871948q0.484375 0.09364319 1.734375 2.3121338zm-13.25 -13.965927q-0.390625 1.4063416 -0.390625 1.7657166q0 1.609375 -1.171875 2.4221191q-1.15625 0.81274414 -2.3125 0.8129883q-1.515625 3.2043457E-4 -2.59375 -1.0619507q-1.0625 -1.0778961 -1.0625 -2.593521q0 -1.921875 0.71875 -2.2501526q0.71875 -0.3282776 1.484375 -1.2503052q2.09375 0.21829224 2.78125 0.6244049q0.6875 0.3904724 2.546875 1.5307007zm35.046906 38.805023q-0.1875 1.0156708 -0.296875 1.4063263q-0.109375 0.39064026 -0.109375 2.3593903q-1.8906555 4.119873E-4 -2.2344055 0.12547302q-0.328125 0.1250763 -1.078125 0.12522888q-0.734375 1.6784668E-4 -0.9375 -1.2810516q0.265625 0.21870422 -1.4375 1.9221954q-0.765625 -2.6404724 -2.265625 -3.577652l2.5 -4.828659q1.296875 1.8434753 1.296875 0.78097534q0 1.375 -0.390625 0.79696655q-0.375 -0.5936737 1.03125 -2.015854q1.515625 1.4371796 0.65625 2.6404877q-0.25 -1.499939 1.328125 -1.5002899q0.9219055 1.1248169 1.2031555 1.5310059q0.28125 0.40618896 0.734375 1.5154572zm-31.203156 -28.321472q0 1.546875 -0.890625 2.3595734q-0.890625 0.8126831 -2.53125 1.422409q-2.078125 -0.7964325 -2.984375 -1.7024841q-0.65625 -1.3279877 -0.65625 -2.1717377q0 -0.84375 0.203125 -1.2656708q0.21875 -0.42192078 0.21875 -2.2187958q2.140625 -4.5776367E-4 2.34375 0.04637146q0.21875 0.031204224 0.21875 0.031204224q0.109375 -1.5258789E-5 0.359375 -0.031326294q0.25 -0.046920776 1.0625 -0.04710388q1.03125 0.6091614 1.109375 0.7028961q0.09375 0.09373474 1.546875 0.5152893l0 2.359375zm24.03125 35.104263q0 1.828125 -1.015625 2.6095886q-1.0 0.7658386 -2.40625 1.2817535q-1.203125 -0.2341156 -1.5 -0.40592957q-0.296875 -0.1717987 -1.21875 -0.3278656q-0.640625 -1.0623627 -0.890625 -1.4060516q-0.234375 -0.35932922 -0.765625 -1.6560822q0.5 -1.2344818 0.703125 -1.5782776q0.21875 -0.34379578 0.625 -1.3282623q1.140625 -0.46899414 1.640625 -0.65660095q0.5 -0.18760681 1.25 -0.1877594q0.5625 -1.2207031E-4 1.828125 0.43710327q0.609375 0.7498779 1.171875 1.3122559q0.578125 0.5623779 0.578125 1.9061279zm-10.234375 2.377182q0 1.375 -1.015625 2.4689636q-1.0 1.1095886 -2.484375 1.109909q-0.703125 1.373291E-4 -1.125 -0.14039612q-0.421875 -0.12490845 -1.765625 -0.12461853q-0.671875 -1.6248627 -0.84375 -2.202942q-0.171875 -0.5937195 -0.171875 -1.2812195l0 -1.828125q1.796875 -0.98475647 2.296875 -1.0629883q0.515625 -0.09385681 1.78125 -0.92225647l2.890625 2.2181396q0.4375 1.2967834 0.4375 1.7655334zm-9.359375 -1.8261414q-1.4375 3.8753204 -4.296875 3.8759155l-0.953125 2.1362305E-4q-1.390625 -0.9059601 -1.609375 -1.3746643q-0.203125 -0.48432922 -1.171875 -1.4528656q0.5 -1.5313568 0.5 -2.5938568q1.640625 -1.640976 2.984375 -1.6412659q0.625 -1.373291E-4 1.0 0.09353638q0.390625 0.078048706 1.578125 0.07778931l1.96875 3.0151978zm-8.75 -2.2168732q-1.125 0.9064789 -1.859375 1.4378967q-0.71875 0.5157776 -1.890625 0.5160217q-0.546875 1.2207031E-4 -0.734375 -0.4998474q-0.1875 -0.49995422 -0.859375 0.3283081q-1.890625 -1.655838 -1.71875 -2.0621338q0.1875 -0.40628052 -1.234375 -1.3122253q1.484375 -1.7659454 2.09375 -2.7192078q0.625 -0.9688721 2.546875 -0.96928406q1.0625 -2.2888184E-4 1.625 0.40589905q0.578125 0.39050293 1.6875 0.8433838q0.34375 1.531189 0.34375 2.093689q0 0.5625 0 1.9375z" fill-rule="nonzero"/><path fill="#ffff00" d="m268.6049 68.79013l14.326599 9.918213E-5l4.4270935 -14.746639l4.427063 14.746639l14.326599 -9.918213E-5l-11.590515 9.113823l4.427246 14.746574l-11.590393 -9.113991l-11.590424 9.113991l4.427246 -14.746574z" fill-rule="evenodd"/><path stroke="#ffffff" stroke-width="1.0" stroke-linejoin="round" stroke-linecap="butt" d="m268.6049 68.79013l14.326599 9.918213E-5l4.4270935 -14.746639l4.427063 14.746639l14.326599 -9.918213E-5l-11.590515 9.113823l4.427246 14.746574l-11.590393 -9.113991l-11.590424 9.113991l4.427246 -14.746574z" fill-rule="evenodd"/><path fill="#ffff00" d="m144.22925 84.10197l11.790268 7.6293945E-5l3.6433105 -9.998581l3.6433258 9.998581l11.790253 -7.6293945E-5l-9.538559 6.17939l3.6434631 9.998535l-9.538483 -6.1795044l-9.538467 6.1795044l3.6434631 -9.998535z" fill-rule="evenodd"/><path stroke="#ffffff" stroke-width="1.0" stroke-linejoin="round" stroke-linecap="butt" d="m144.22925 84.10197l11.790268 7.6293945E-5l3.6433105 -9.998581l3.6433258 9.998581l11.790253 -7.6293945E-5l-9.538559 6.17939l3.6434631 9.998535l-9.538483 -6.1795044l-9.538467 6.1795044l3.6434631 -9.998535z" fill-rule="evenodd"/><path fill="#ffff00" d="m279.9212 272.60886l14.32663 1.2207031E-4l4.427063 -14.746643l4.4270935 14.746643l14.326599 -1.2207031E-4l-11.590515 9.113831l4.427246 14.746582l-11.590424 -9.113983l-11.590393 9.113983l4.427246 -14.746582z" fill-rule="evenodd"/><path stroke="#ffffff" stroke-width="1.0" stroke-linejoin="round" stroke-linecap="butt" d="m279.9212 272.60886l14.32663 1.2207031E-4l4.427063 -14.746643l4.4270935 14.746643l14.326599 -1.2207031E-4l-11.590515 9.113831l4.427246 14.746582l-11.590424 -9.113983l-11.590393 9.113983l4.427246 -14.746582z" fill-rule="evenodd"/><path fill="#ffff00" d="m140.90863 261.3622l14.326614 1.2207031E-4l4.4270782 -14.746643l4.4270782 14.746643l14.326599 -1.2207031E-4l-11.590515 9.113831l4.427246 14.746582l-11.590408 -9.113983l-11.590424 9.113983l4.4272614 -14.746582z" fill-rule="evenodd"/><path stroke="#ffffff" stroke-width="1.0" stroke-linejoin="round" stroke-linecap="butt" d="m140.90863 261.3622l14.326614 1.2207031E-4l4.4270782 -14.746643l4.4270782 14.746643l14.326599 -1.2207031E-4l-11.590515 9.113831l4.427246 14.746582l-11.590408 -9.113983l-11.590424 9.113983l4.4272614 -14.746582z" fill-rule="evenodd"/><path fill="#ffff00" d="m214.55672 244.59862l14.326614 9.1552734E-5l4.4270782 -12.912735l4.4270782 12.912735l14.326614 -9.1552734E-5l-11.59053 7.9804077l4.427246 12.912674l-11.590408 -7.9805603l-11.590424 7.9805603l4.4272614 -12.912674z" fill-rule="evenodd"/><path stroke="#ffffff" stroke-width="1.0" stroke-linejoin="round" stroke-linecap="butt" d="m214.55672 244.59862l14.326614 9.1552734E-5l4.4270782 -12.912735l4.4270782 12.912735l14.326614 -9.1552734E-5l-11.59053 7.9804077l4.427246 12.912674l-11.590408 -7.9805603l-11.590424 7.9805603l4.4272614 -12.912674z" fill-rule="evenodd"/><path fill="#ffff00" d="m207.71935 324.47l14.326614 9.1552734E-5l4.4270782 -12.91272l4.4270782 12.91272l14.326614 -9.1552734E-5l-11.59053 7.9804077l4.4272614 12.912689l-11.590424 -7.9805603l-11.590408 7.9805603l4.427246 -12.912689z" fill-rule="evenodd"/><path stroke="#ffffff" stroke-width="1.0" stroke-linejoin="round" stroke-linecap="butt" d="m207.71935 324.47l14.326614 9.1552734E-5l4.4270782 -12.91272l4.4270782 12.91272l14.326614 -9.1552734E-5l-11.59053 7.9804077l4.4272614 12.912689l-11.590424 -7.9805603l-11.590408 7.9805603l4.427246 -12.912689z" fill-rule="evenodd"/><path fill="#ffff00" d="m190.78493 27.280277l11.790253 7.05719E-5l3.6433258 -9.998575l3.6433105 9.998575l11.790268 -7.05719E-5l-9.538574 6.17939l3.6434631 9.998531l-9.538467 -6.1795044l-9.538483 6.1795044l3.6434631 -9.998531z" fill-rule="evenodd"/><path stroke="#ffffff" stroke-width="1.0" stroke-linejoin="round" stroke-linecap="butt" d="m190.78493 27.280277l11.790253 7.05719E-5l3.6433258 -9.998575l3.6433105 9.998575l11.790268 -7.05719E-5l-9.538574 6.17939l3.6434631 9.998531l-9.538467 -6.1795044l-9.538483 6.1795044l3.6434631 -9.998531z" fill-rule="evenodd"/><path fill="#ffff00" d="m210.94113 105.56327l14.326614 9.1552734E-5l4.4270782 -12.912735l4.4270782 12.912735l14.326614 -9.1552734E-5l-11.59053 7.9804153l4.427246 12.912674l-11.590408 -7.9805603l-11.590424 7.9805603l4.4272614 -12.912674z" fill-rule="evenodd"/><path stroke="#ffffff" stroke-width="1.0" stroke-linejoin="round" stroke-linecap="butt" d="m210.94113 105.56327l14.326614 9.1552734E-5l4.4270782 -12.912735l4.4270782 12.912735l14.326614 -9.1552734E-5l-11.59053 7.9804153l4.427246 12.912674l-11.590408 -7.9805603l-11.590424 7.9805603l4.4272614 -12.912674z" fill-rule="evenodd"/></g></svg>